<svg width="66" height="66" viewBox="0 0 66 66" fill="none" xmlns="http://www.w3.org/2000/svg">
<mask id="mask0_2224_6584" style="mask-type:alpha" maskUnits="userSpaceOnUse" x="0" y="0" width="66" height="66">
<rect width="66" height="66" fill="#D9D9D9"/>
</mask>
<g mask="url(#mask0_2224_6584)">
<path d="M29.15 45.65L48.5375 26.2625L44.6875 22.4125L29.15 37.95L21.3125 30.1125L17.4625 33.9625L29.15 45.65ZM33 60.5C29.1958 60.5 25.6208 59.7781 22.275 58.3344C18.9292 56.8906 16.0187 54.9313 13.5437 52.4563C11.0687 49.9813 9.10938 47.0708 7.66563 43.725C6.22187 40.3792 5.5 36.8042 5.5 33C5.5 29.1958 6.22187 25.6208 7.66563 22.275C9.10938 18.9292 11.0687 16.0187 13.5437 13.5437C16.0187 11.0687 18.9292 9.10938 22.275 7.66563C25.6208 6.22187 29.1958 5.5 33 5.5C36.8042 5.5 40.3792 6.22187 43.725 7.66563C47.0708 9.10938 49.9813 11.0687 52.4563 13.5437C54.9313 16.0187 56.8906 18.9292 58.3344 22.275C59.7781 25.6208 60.5 29.1958 60.5 33C60.5 36.8042 59.7781 40.3792 58.3344 43.725C56.8906 47.0708 54.9313 49.9813 52.4563 52.4563C49.9813 54.9313 47.0708 56.8906 43.725 58.3344C40.3792 59.7781 36.8042 60.5 33 60.5Z" fill="#0017C1"/>
</g>
</svg>
