<svg width="30" height="30" viewBox="0 0 30 30" fill="none" xmlns="http://www.w3.org/2000/svg">
<g clip-path="url(#clip0_2224_6579)">
<mask id="mask0_2224_6579" style="mask-type:alpha" maskUnits="userSpaceOnUse" x="0" y="0" width="30" height="30">
<rect width="30" height="30" fill="#D9D9D9"/>
</mask>
<g mask="url(#mask0_2224_6579)">
<path d="M5.69228 25.6249C5.39261 25.5496 5.11698 25.3861 4.86537 25.1346C4.61379 24.883 4.45033 24.6073 4.375 24.3077L24.3077 4.375C24.633 4.46315 24.9118 4.6266 25.1442 4.86538C25.3765 5.10417 25.5432 5.3798 25.6442 5.69228L5.69228 25.6249ZM4.375 17.6418V15.0072L15.0072 4.375H17.6417L4.375 17.6418ZM4.375 8.34128V6.63463C4.375 6.00321 4.59375 5.46875 5.03125 5.03125C5.46875 4.59375 6.00321 4.375 6.63462 4.375H8.34128L4.375 8.34128ZM21.6587 25.6249L25.6249 21.6587V23.3653C25.6249 23.9967 25.4062 24.5312 24.9687 24.9687C24.5312 25.4062 23.9967 25.6249 23.3653 25.6249H21.6587ZM12.3582 25.6249L25.6249 12.3582V14.9928L14.9927 25.6249H12.3582Z" fill="#1A1A1A"/>
</g>
</g>
<defs>
<clipPath id="clip0_2224_6579">
<rect width="30" height="30" fill="white"/>
</clipPath>
</defs>
</svg>
