<svg width="67" height="67" viewBox="0 0 67 67" fill="none" xmlns="http://www.w3.org/2000/svg">
<mask id="mask0_2224_6624" style="mask-type:alpha" maskUnits="userSpaceOnUse" x="0" y="0" width="67" height="67">
<rect width="67" height="67" fill="#D9D9D9"/>
</mask>
<g mask="url(#mask0_2224_6624)">
<path d="M30.7085 47.4585H36.2918V30.7085H30.7085V47.4585ZM33.5002 25.1252C34.2911 25.1252 34.9542 24.8576 35.4892 24.3226C36.0243 23.7875 36.2918 23.1245 36.2918 22.3335C36.2918 21.5425 36.0243 20.8795 35.4892 20.3444C34.9542 19.8094 34.2911 19.5418 33.5002 19.5418C32.7092 19.5418 32.0462 19.8094 31.5111 20.3444C30.976 20.8795 30.7085 21.5425 30.7085 22.3335C30.7085 23.1245 30.976 23.7875 31.5111 24.3226C32.0462 24.8576 32.7092 25.1252 33.5002 25.1252ZM33.5002 61.4168C29.6384 61.4168 26.0092 60.684 22.6127 59.2184C19.2161 57.7528 16.2616 55.7637 13.7491 53.2512C11.2366 50.7387 9.24756 47.7842 7.78193 44.3877C6.31631 40.9911 5.5835 37.362 5.5835 33.5002C5.5835 29.6384 6.31631 26.0092 7.78193 22.6127C9.24756 19.2161 11.2366 16.2616 13.7491 13.7491C16.2616 11.2366 19.2161 9.24756 22.6127 7.78193C26.0092 6.31631 29.6384 5.5835 33.5002 5.5835C37.362 5.5835 40.9911 6.31631 44.3877 7.78193C47.7842 9.24756 50.7387 11.2366 53.2512 13.7491C55.7637 16.2616 57.7528 19.2161 59.2184 22.6127C60.684 26.0092 61.4168 29.6384 61.4168 33.5002C61.4168 37.362 60.684 40.9911 59.2184 44.3877C57.7528 47.7842 55.7637 50.7387 53.2512 53.2512C50.7387 55.7637 47.7842 57.7528 44.3877 59.2184C40.9911 60.684 37.362 61.4168 33.5002 61.4168Z" fill="#666666"/>
</g>
</svg>
