<svg width="320" height="77" viewBox="0 0 320 77" fill="none" xmlns="http://www.w3.org/2000/svg">
<path d="M33.524 13.288C33.524 13.756 32.984 13.72 32.768 13.72C32.336 13.756 32.3 13.864 31.832 14.296C28.808 17.212 25.424 19.696 21.716 21.676C21.284 21.928 20.348 22.468 19.844 22.468C19.016 22.468 17.756 20.74 17.756 20.092C17.756 19.66 18.116 19.48 18.44 19.336C22.724 17.356 26.684 14.62 29.924 11.164C30.068 10.984 30.356 10.66 30.608 10.66C30.932 10.66 31.904 11.56 32.192 11.812C32.552 12.136 33.524 12.856 33.524 13.288ZM18.908 6.808C18.908 7.132 18.584 7.168 18.332 7.204C18.08 7.276 17.972 7.456 17.864 7.708C17.18 9.22 16.136 11.236 15.236 12.604C15.056 12.856 14.84 13.252 14.516 13.252C14.192 13.252 12.248 12.532 12.248 11.92C12.248 11.632 12.572 11.164 12.752 10.912C13.76 9.4 14.516 7.672 15.128 5.944C15.2 5.692 15.308 5.332 15.632 5.332C15.92 5.332 17.468 5.908 17.9 6.088C18.44 6.304 18.908 6.412 18.908 6.808ZM33.596 23.296C33.596 23.692 33.056 23.764 32.768 23.8C32.48 23.836 32.408 23.872 32.192 24.088C28.484 27.796 23.876 30.784 19.016 32.764C18.62 32.908 17.864 33.196 17.468 33.196C16.748 33.196 15.632 31.252 15.632 30.604C15.632 30.064 16.352 29.92 16.748 29.776C21.392 28.012 26.684 24.988 29.96 21.208C30.14 20.992 30.392 20.668 30.68 20.668C31.04 20.668 32.696 22.144 33.128 22.54C33.344 22.72 33.596 23.008 33.596 23.296ZM5.948 11.992C5.948 12.352 5.804 12.46 5.048 12.712C4.652 12.82 3.896 13.036 3.464 13.036C2.924 13.036 2.888 12.712 2.78 12.28C2.528 11.236 1.988 9.616 1.592 8.608C1.52 8.428 1.412 8.212 1.412 8.032C1.412 7.204 3.608 6.952 3.824 6.952C4.364 6.952 4.508 7.312 5.228 9.508C5.372 9.94 5.948 11.668 5.948 11.992ZM32.732 4.108C32.732 4.504 32.264 4.504 32.012 4.504C31.688 4.54 31.436 4.756 31.22 4.972C28.484 7.672 25.568 10.012 22.184 11.884C21.824 12.1 21.248 12.46 20.852 12.46C20.096 12.46 18.728 10.768 18.728 10.156C18.728 9.724 19.124 9.58 20.348 8.932C23.228 7.348 27.08 4.54 29.168 2.02C29.348 1.84 29.528 1.588 29.78 1.588C29.996 1.588 32.732 3.568 32.732 4.108ZM11.348 11.02C11.348 11.56 10.88 11.668 10.088 11.848C9.8 11.92 9.08 11.992 8.792 11.992C8.252 11.992 8.18 11.632 8.072 10.876C7.892 9.76 7.568 8.644 7.244 7.564C7.208 7.42 7.136 7.168 7.136 7.024C7.136 6.34 9.152 6.16 9.656 6.16C10.34 6.16 10.34 6.448 10.772 8.176C10.88 8.68 11.348 10.624 11.348 11.02ZM18.512 4.18C18.512 4.432 18.332 4.54 18.116 4.54C17.936 4.54 17.648 4.432 17.468 4.396C17.36 4.36 17.252 4.324 17.108 4.324C16.892 4.324 16.64 4.396 16.46 4.468C12.32 5.512 6.956 6.052 2.708 6.052C2.204 6.052 1.484 6.052 1.484 3.676C1.484 2.848 1.952 2.812 2.636 2.812C6.668 2.74 12.032 2.452 15.848 1.156C16.028 1.084 16.172 1.012 16.352 1.012C16.712 1.012 17.216 1.912 17.432 2.236C17.684 2.596 18.512 3.784 18.512 4.18ZM11.708 23.836C11.636 23.728 11.564 23.692 11.42 23.692C11.24 23.692 11.168 23.872 11.168 24.016V28.516C11.168 29.776 11.24 31.036 11.24 32.296C11.24 33.376 10.88 33.376 9.512 33.376C8.108 33.376 7.748 33.34 7.748 32.332C7.748 31.036 7.82 29.776 7.82 28.516V24.124C7.82 23.98 7.784 23.872 7.64 23.872C7.568 23.872 7.496 23.944 7.46 23.98C6.956 25.132 4.004 30.964 2.888 30.964C2.312 30.964 0.692 29.38 0.692 28.768C0.692 28.444 0.908 28.3 1.124 28.012C3.176 25.78 4.976 23.152 6.308 20.416C6.344 20.308 6.38 20.2 6.38 20.092C6.38 19.588 5.84 19.552 5.696 19.552H5.3C4.184 19.552 3.068 19.624 1.988 19.624C1.16 19.624 1.196 19.228 1.196 17.896C1.196 16.564 1.16 16.204 1.988 16.204C3.104 16.204 4.184 16.276 5.3 16.276H6.848C7.532 16.276 7.784 16.024 7.82 15.34C7.856 14.8 7.748 14.044 7.712 13.504C7.712 13.396 7.676 13.252 7.676 13.144C7.676 12.748 8 12.676 8.324 12.676C8.9 12.676 10.412 12.82 11.06 12.856C11.42 12.892 11.996 12.856 11.996 13.288C11.996 13.576 11.744 13.72 11.564 13.828C11.204 14.116 11.132 14.404 11.168 15.34C11.168 16.024 11.492 16.276 12.176 16.276H13.292C14.408 16.276 15.524 16.204 16.604 16.204C17.468 16.204 17.396 16.636 17.396 17.932C17.396 19.228 17.432 19.624 16.604 19.624C15.488 19.624 14.408 19.552 13.292 19.552H12.788C12.5 19.552 12.248 19.66 12.248 19.984C12.248 20.128 12.284 20.2 12.356 20.308C13.256 21.424 15.2 23.368 16.316 24.268C16.532 24.484 17.036 24.844 17.036 25.132C17.036 25.78 15.884 27.436 15.164 27.436C14.48 27.436 12.176 24.484 11.708 23.836ZM46.304 13.936H43.784C43.1 13.936 42.812 14.224 42.812 14.944V22.108C42.812 22.36 42.92 22.612 43.208 22.612C43.352 22.612 43.46 22.54 43.568 22.468C46.088 20.452 47.096 18.112 47.276 14.944C47.312 14.26 46.988 13.936 46.304 13.936ZM53.036 13.936H51.812C51.128 13.936 50.804 14.224 50.768 14.908C50.588 18.364 49.796 21.424 47.312 23.944C46.916 24.34 45.476 25.672 44.972 25.672C44.432 25.672 43.676 24.916 43.352 24.556C43.244 24.448 43.172 24.412 43.064 24.412C42.884 24.412 42.812 24.592 42.812 24.736V26.86C42.812 27.58 43.1 27.868 43.784 27.868H62.072C62.792 27.868 63.08 27.58 63.08 26.86V22.612C63.08 22.504 63.044 22.36 62.864 22.36C62.792 22.36 62.72 22.432 62.684 22.504C61.964 23.728 60.956 23.908 59.66 23.908H57.284C54.548 23.908 54.008 23.08 54.008 20.452V14.944C54.008 14.26 53.72 13.936 53.036 13.936ZM62.144 17.068C62.216 17.068 62.288 17.104 62.396 17.104C62.864 17.104 63.08 16.744 63.08 16.312V14.944C63.08 14.224 62.792 13.936 62.072 13.936H58.58C57.86 13.936 57.572 14.224 57.572 14.944V19.552C57.572 20.416 57.716 20.56 58.508 20.56H59.192C60.164 20.56 60.308 19.984 60.56 17.824C60.668 17.032 60.74 16.96 61.208 16.96C61.532 16.96 61.82 16.996 62.144 17.068ZM53.036 6.016H51.812C51.2 6.088 50.876 6.412 50.804 7.024V9.544C50.876 10.156 51.2 10.48 51.812 10.552H53.036C53.648 10.48 54.008 10.156 54.008 9.544V7.024C54.008 6.412 53.648 6.088 53.036 6.016ZM57.572 7.024V9.544C57.572 10.228 57.86 10.552 58.58 10.552H61.424C62.504 10.552 63.584 10.48 64.664 10.48C65.96 10.48 66.716 10.732 66.716 12.208C66.716 13.18 66.644 14.188 66.644 15.196V28.624C66.644 29.884 66.752 31.18 66.752 32.44C66.752 33.34 66.356 33.376 64.88 33.376C63.332 33.376 63.008 33.34 63.008 32.404V32.08C63.008 31.504 62.756 31.252 62.18 31.252H43.712C43.136 31.252 42.92 31.504 42.884 32.08C42.92 33.268 42.74 33.268 40.976 33.268C39.536 33.268 39.14 33.268 39.14 32.368C39.14 31.072 39.212 29.812 39.212 28.552V15.196C39.212 14.188 39.176 13.216 39.176 12.208C39.176 10.768 39.896 10.48 41.192 10.48C42.272 10.48 43.388 10.552 44.468 10.552H46.304C46.988 10.552 47.312 10.228 47.312 9.544V7.024C47.312 6.34 46.988 6.016 46.304 6.016H42.452C40.976 6.016 39.5 6.124 37.988 6.124C37.124 6.124 37.16 5.656 37.16 4.288C37.16 2.92 37.124 2.488 37.988 2.488C39.5 2.488 40.976 2.56 42.452 2.56H63.548C65.06 2.56 66.536 2.488 68.012 2.488C68.876 2.488 68.876 2.92 68.876 4.288C68.876 5.656 68.876 6.124 68.012 6.124C66.536 6.124 65.06 6.016 63.548 6.016H58.58C57.896 6.016 57.572 6.34 57.572 7.024ZM103.904 30.676C103.904 31.252 102.248 32.692 101.636 32.692C101.276 32.692 100.916 32.224 100.7 31.972C98.828 29.848 96.668 27.94 94.4 26.284C94.184 26.14 93.824 25.888 93.824 25.564C93.824 24.988 95.372 23.656 95.948 23.656C96.956 23.656 103.904 29.776 103.904 30.676ZM84.752 25.636C84.752 25.744 84.644 25.996 84.248 25.996H84.104C83.708 25.996 83.564 26.176 83.312 26.464C82.304 27.58 77.516 32.44 76.22 32.44C75.5 32.44 73.808 30.856 73.808 30.316C73.808 29.956 74.096 29.776 74.348 29.632C76.832 28.084 78.956 26.068 80.864 23.836C81.008 23.656 81.188 23.404 81.476 23.404C81.764 23.404 82.628 23.98 83.312 24.448C83.636 24.664 83.924 24.844 84.068 24.916C84.248 25.06 84.752 25.384 84.752 25.636ZM93.248 13.144C93.5 13.144 93.752 13.036 93.752 12.712C93.752 12.568 93.716 12.46 93.644 12.352C92.132 10.408 91.196 8.824 90.152 6.592C90.044 6.448 89.936 6.34 89.792 6.34C89.612 6.34 89.504 6.448 89.396 6.592C88.64 8.248 86.84 11.02 85.616 12.424C85.544 12.496 85.472 12.604 85.472 12.748C85.472 13.144 85.832 13.18 85.94 13.18H91.412C92.024 13.18 92.636 13.18 93.248 13.144ZM99.62 19.3C99.8 19.3 100.016 19.192 100.016 18.976C100.016 18.868 99.944 18.76 99.836 18.688C98.396 17.536 97.064 16.24 95.768 14.908C95.696 14.836 95.624 14.8 95.516 14.8C95.336 14.8 95.228 14.944 95.228 15.124C95.192 15.952 95.3 16.456 94.472 16.456C93.464 16.456 92.456 16.384 91.412 16.384H87.164C86.12 16.384 85.112 16.456 84.068 16.456C83.384 16.456 83.348 16.096 83.348 15.52C83.312 15.34 83.24 15.232 83.06 15.232C82.988 15.232 82.916 15.304 82.844 15.34C81.584 16.528 80.288 17.68 78.92 18.724C78.812 18.796 78.74 18.904 78.74 19.012C78.74 19.156 78.848 19.3 79.1 19.336C79.928 19.336 80.756 19.372 81.584 19.372H96.776C97.748 19.372 98.684 19.372 99.62 19.3ZM81.692 11.704C81.8 11.56 81.872 11.416 81.872 11.272C81.872 11.056 81.8 10.912 81.656 10.768C81.152 10.3 80.612 9.832 80.072 9.364C79.892 9.22 79.712 9.112 79.46 9.112C79.136 9.112 78.992 9.256 78.776 9.472C78.668 9.58 78.56 9.724 78.452 9.832C78.38 9.976 78.308 10.084 78.308 10.264C78.308 10.444 78.416 10.588 78.524 10.732L80.216 12.316C80.324 12.424 80.468 12.532 80.648 12.532C80.864 12.532 80.972 12.424 81.116 12.316C81.332 12.1 81.512 11.884 81.692 11.704ZM81.476 7.024C82.016 7.492 82.556 7.996 83.096 8.5C83.24 8.644 83.42 8.752 83.672 8.752C83.96 8.752 84.14 8.608 84.284 8.392C84.536 8.032 85.436 6.7 85.436 6.34C85.436 6.088 85.076 6.052 84.536 6.052H82.016C81.692 6.052 81.476 6.088 81.224 6.304C81.188 6.376 81.188 6.412 81.188 6.484C81.188 6.736 81.296 6.88 81.476 7.024ZM78.02 13.864L76.94 12.892C76.724 12.712 76.544 12.604 76.292 12.604C76.004 12.604 75.788 12.748 75.572 12.892C75.356 13.108 75.14 13.288 74.852 13.288C74.204 13.288 72.728 11.812 72.728 11.164C72.728 10.804 73.124 10.48 73.412 10.228C76.04 7.744 78.56 4.756 79.856 1.372C79.928 1.12 80 0.868 80.324 0.868C80.54 0.868 82.124 1.3 82.484 1.408C83.708 1.696 84.32 1.804 84.32 2.236C84.32 2.488 83.96 2.632 83.744 2.668C83.564 2.704 83.204 2.74 83.204 2.992C83.204 3.172 83.456 3.244 83.6 3.28H85.112C85.976 3.28 86.84 3.244 87.704 3.244H88.028C88.316 3.244 88.604 3.172 88.604 2.812V2.632C88.568 2.452 88.532 2.308 88.532 2.164C88.532 1.3 90.944 1.12 90.98 1.12C91.52 1.12 91.628 1.552 91.772 1.984C92.708 4.864 94.04 7.24 95.84 9.688C95.984 9.904 96.164 10.048 96.452 10.048C96.848 10.048 97.136 9.616 97.352 9.328C98.18 8.32 99.98 6.124 99.98 5.764C99.98 5.476 99.512 5.512 99.152 5.512H97.208C96.416 5.512 95.516 5.584 94.832 5.584C94.004 5.584 94.004 5.26 94.004 4.108C94.004 2.884 94.04 2.632 94.832 2.632C95.408 2.632 96.164 2.704 97.352 2.704H99.368C100.196 2.704 101.024 2.668 101.888 2.668C103.544 2.668 104.372 4.144 104.372 4.684C104.372 6.304 100.412 10.804 99.26 12.208C99.08 12.424 98.972 12.604 98.972 12.856C98.972 13.18 99.116 13.36 99.332 13.54C100.88 15.016 102.572 16.312 104.336 17.5C104.768 17.788 105.236 18.04 105.236 18.436C105.236 19.12 103.904 20.992 103.22 20.992C102.896 20.992 102.32 20.56 102.068 20.38C101.96 20.308 101.888 20.272 101.78 20.272C101.456 20.272 101.384 20.524 101.348 20.776C101.348 22.144 101.384 22.576 100.556 22.576C99.296 22.576 98.036 22.504 96.776 22.504H92.024C91.34 22.504 91.016 22.792 91.016 23.512V26.86C91.016 27.58 91.088 28.3 91.088 29.02C91.088 31.72 90.944 33.304 85.256 33.304H84.824C84.32 33.304 83.744 33.268 83.528 32.908C83.168 32.404 82.952 31.072 82.952 30.46C82.952 29.74 83.204 29.596 83.636 29.596C84.176 29.596 84.716 29.668 85.256 29.668C87.236 29.668 87.2 29.308 87.2 27.436V23.512C87.2 22.792 86.912 22.504 86.192 22.504H81.584C80.324 22.504 79.064 22.576 77.804 22.576C76.904 22.576 77.048 22.072 77.012 21.028C76.976 20.74 76.868 20.488 76.544 20.488C76.4 20.488 76.328 20.524 76.22 20.596C75.824 20.848 75.248 21.28 74.78 21.28C73.808 21.28 72.584 19.516 72.584 19.048C72.584 18.508 73.736 17.932 74.168 17.68C75.536 16.852 76.652 16.096 77.912 15.16C78.128 14.98 78.308 14.764 78.308 14.476C78.308 14.224 78.164 14.044 78.02 13.864ZM11.708 68.348C11.708 68.96 10.7 69.248 10.34 69.248C9.944 69.248 9.836 68.816 9.62 67.808C9.476 67.232 9.332 66.404 9.008 65.396C8.972 65.252 8.936 65.108 8.936 64.964C8.936 64.532 9.8 64.28 10.16 64.28C10.664 64.28 10.7 64.532 11.168 66.116C11.24 66.476 11.708 68.06 11.708 68.348ZM9.08 70.148C9.08 70.796 8.144 70.94 7.856 70.94C7.352 70.94 7.316 70.688 7.172 69.644C7.136 69.428 7.1 69.212 7.064 68.924C6.92 68.096 6.632 66.764 6.452 65.972C6.416 65.828 6.38 65.72 6.38 65.612C6.38 65.072 7.352 64.964 7.568 64.964C8.072 64.964 8.18 65.396 8.576 67.304C8.684 67.808 9.08 69.752 9.08 70.148ZM6.2 71.876C6.2 72.56 5.372 72.704 4.904 72.704C4.148 72.704 4.256 72.092 4.22 70.184C4.184 69.32 4.004 67.484 3.86 66.62C3.824 66.476 3.824 66.368 3.824 66.224C3.824 65.72 4.616 65.612 4.976 65.612C5.516 65.612 5.624 66.08 5.948 68.672C6.02 69.32 6.2 71.3 6.2 71.876ZM1.556 65.648C2.024 65.648 3.68 65.828 3.68 66.26C3.68 66.476 3.392 66.62 3.248 66.692C3.032 66.8 3.032 67.016 3.032 67.232C2.96 68.6 2.888 69.968 2.744 71.336C2.636 72.632 2.564 73.532 1.952 73.532C1.736 73.532 0.584 73.388 0.584 72.74C0.584 72.632 0.584 72.488 0.62 72.38C1.016 70.508 1.16 68.204 1.16 66.296C1.16 66.008 1.196 65.648 1.556 65.648ZM26.036 55.496V60.176C26.036 60.86 26.36 61.184 27.044 61.184C28.124 61.184 29.204 61.112 30.284 61.112C31.292 61.112 31.22 61.616 31.22 62.876C31.22 64.1 31.292 64.604 30.284 64.604C29.204 64.604 28.124 64.496 27.044 64.532C26.36 64.532 26.036 64.82 26.036 65.54V70.832C26.036 71.516 26.36 71.804 27.044 71.804H28.304C29.636 71.804 30.968 71.732 32.3 71.732C33.272 71.732 33.236 72.2 33.236 73.532C33.236 74.936 33.236 75.368 32.3 75.368C30.968 75.368 29.636 75.296 28.304 75.296H20.276C18.944 75.296 17.612 75.368 16.28 75.368C15.308 75.368 15.344 74.9 15.344 73.532C15.344 72.164 15.344 71.732 16.28 71.732C17.612 71.732 18.944 71.804 20.276 71.804H21.356C22.04 71.804 22.364 71.516 22.364 70.832V65.54C22.364 64.82 22.04 64.532 21.356 64.532C20.348 64.496 19.304 64.604 18.296 64.604C17.324 64.604 17.36 64.136 17.36 62.876C17.36 61.364 17.396 61.112 18.476 61.112C19.088 61.112 19.988 61.22 21.392 61.184C22.076 61.184 22.364 60.86 22.364 60.176V55.496C22.364 54.776 22.04 54.488 21.356 54.488H21.068C19.844 54.488 18.62 54.56 17.396 54.56C16.388 54.56 16.46 54.02 16.46 52.796C16.46 51.608 16.388 51.032 17.36 51.032C18.62 51.032 19.844 51.104 21.068 51.104H23.372C23.588 51.104 23.804 51.032 23.804 50.78C23.804 50.636 23.768 50.528 23.66 50.456C22.4 49.268 21.032 48.188 19.628 47.216C19.376 47.036 19.196 46.892 19.196 46.568C19.196 46.028 20.42 44.444 21.176 44.444C21.608 44.444 23.444 45.956 23.912 46.316C24.416 46.712 26.36 48.296 26.684 48.692C26.828 48.836 26.9 48.98 26.9 49.16C26.9 49.592 26.324 50.168 26.072 50.456C26 50.564 25.928 50.636 25.928 50.78C25.928 51.032 26.144 51.104 26.36 51.104H27.836C29.06 51.104 30.284 51.032 31.544 51.032C32.516 51.032 32.444 51.608 32.444 52.796C32.444 53.984 32.516 54.56 31.544 54.56C30.32 54.56 29.06 54.488 27.836 54.488H27.044C26.36 54.488 26.036 54.776 26.036 55.496ZM8.288 49.52V49.052C8.288 48.548 7.964 48.224 7.46 48.224H6.452C5.948 48.224 5.588 48.548 5.588 49.052V49.52C5.588 50.06 5.948 50.384 6.452 50.384H7.46C7.964 50.384 8.288 50.06 8.288 49.52ZM8.288 54.344V53.912C8.288 53.408 7.964 53.048 7.46 53.048H6.452C5.948 53.048 5.588 53.408 5.588 53.912V54.344C5.588 54.848 5.948 55.172 6.452 55.172H7.46C7.964 55.172 8.288 54.848 8.288 54.344ZM8.288 59.276V58.844C8.288 58.16 8 57.836 7.316 57.836H6.596C5.876 57.836 5.588 58.16 5.588 58.844V59.276C5.588 59.96 5.912 60.248 6.596 60.248H7.316C8 60.248 8.288 59.96 8.288 59.276ZM12.032 53.048C11.456 53.048 11.204 53.3 11.204 53.912V54.344C11.204 54.92 11.456 55.172 12.032 55.172C12.968 55.172 13.94 55.1 14.516 55.1C15.236 55.1 15.2 55.532 15.2 56.54C15.2 57.512 15.2 57.908 14.516 57.908C13.904 57.908 13.04 57.8 12.176 57.836C11.492 57.836 11.204 58.16 11.204 58.844V59.276C11.204 59.924 11.456 60.248 12.14 60.248C12.716 60.248 13.292 60.212 13.868 60.212C15.596 60.212 15.596 61.04 15.596 62.192C15.596 64.784 14.912 71.912 13.76 74.072C12.716 76.052 10.772 76.196 8.72 76.196C7.928 76.196 6.956 76.304 6.956 73.928C6.956 73.46 6.956 72.668 7.604 72.668C7.856 72.668 8.468 72.776 9.08 72.776C10.88 72.776 11.24 72.272 11.564 70.652C11.852 69.176 12.248 65.792 12.248 64.316C12.248 63.236 11.672 63.344 10.628 63.344H6.128C5.84 63.344 5.732 63.452 5.552 63.74C5.3 64.064 5.048 64.1 3.932 64.1C2.492 64.1 2.168 64.064 2.168 62.984C2.168 61.58 2.24 60.212 2.24 58.844V49.664C2.24 48.728 2.204 47.828 2.204 46.928C2.204 45.452 2.888 45.092 4.256 45.092C5.12 45.092 5.984 45.164 6.884 45.164H12.932C13.652 45.164 14.372 45.092 15.092 45.092C15.884 45.092 15.848 45.488 15.848 46.712C15.848 47.9 15.884 48.26 15.092 48.26C14.444 48.26 13.688 48.224 12.932 48.224H12.032C11.456 48.224 11.204 48.476 11.204 49.052V49.52C11.204 50.132 11.456 50.384 12.032 50.384C12.932 50.384 13.832 50.312 14.516 50.312C15.2 50.312 15.2 50.708 15.2 51.752C15.2 52.724 15.2 53.12 14.516 53.12C13.976 53.12 12.968 53.012 12.032 53.048ZM41.624 60.608H41.408C40.904 60.608 40.544 60.932 40.544 61.436V62.12C40.544 62.624 40.904 62.984 41.408 62.984H41.624C42.128 62.984 42.452 62.624 42.452 62.12V61.436C42.452 60.932 42.128 60.608 41.624 60.608ZM45.08 61.436V62.12C45.08 62.624 45.44 62.984 45.944 62.984H46.16C46.664 62.984 47.024 62.624 47.024 62.12V61.436C47.024 60.932 46.664 60.608 46.16 60.608H45.944C45.44 60.608 45.08 60.932 45.08 61.436ZM42.452 57.116V56.612C42.452 56.108 42.128 55.748 41.624 55.748H41.408C40.904 55.748 40.544 56.108 40.544 56.612V57.116C40.544 57.62 40.904 57.944 41.408 57.944H41.624C42.128 57.944 42.452 57.62 42.452 57.116ZM45.944 57.944H46.16C46.664 57.944 47.024 57.62 47.024 57.116V56.612C47.024 56.108 46.664 55.748 46.16 55.748H45.944C45.44 55.748 45.08 56.108 45.08 56.612V57.116C45.08 57.62 45.44 57.944 45.944 57.944ZM59.768 49.628C59.66 49.448 59.48 49.304 59.264 49.304C59.048 49.304 58.868 49.412 58.76 49.592C57.968 50.744 57.248 51.896 56.42 53.012C56.348 53.12 56.312 53.192 56.312 53.372C56.312 53.66 56.528 53.768 56.816 53.804H61.748C62 53.768 62.216 53.66 62.216 53.372C62.216 53.228 62.18 53.12 62.108 53.012C61.244 51.86 60.56 50.852 59.768 49.628ZM53.648 56.288C53.216 56.756 52.244 57.944 51.632 57.944C51.128 57.944 50.444 57.404 50.048 57.116C49.94 57.044 49.868 57.008 49.724 57.008C49.436 57.008 49.364 57.188 49.364 57.44V62.948C49.364 63.452 49.4 63.956 49.4 64.496C49.4 65.432 48.896 65.72 48.032 65.72C47.42 65.72 46.808 65.684 46.196 65.684C45.584 65.72 45.332 65.936 45.332 66.512V66.944C45.332 67.556 45.584 67.808 46.196 67.808H46.7C47.636 67.808 48.536 67.736 49.472 67.736C50.3 67.736 50.264 68.132 50.264 69.248C50.264 70.364 50.264 70.724 49.472 70.724C48.536 70.724 47.6 70.652 46.7 70.652H46.34C45.656 70.652 45.368 70.94 45.368 71.624C45.368 72.812 45.44 74 45.44 75.188C45.44 76.376 45.116 76.412 43.784 76.412C42.452 76.412 42.092 76.34 42.092 75.188C42.092 74.036 42.2 72.848 42.2 71.66C42.2 70.94 41.912 70.652 41.192 70.652H40.76C39.824 70.652 38.888 70.724 37.952 70.724C37.16 70.724 37.196 70.328 37.196 69.248C37.196 68.06 37.16 67.736 37.988 67.736C38.924 67.736 39.824 67.808 40.76 67.808H41.336C41.948 67.808 42.2 67.556 42.2 66.944V66.512C42.2 65.936 41.948 65.684 41.372 65.684C40.76 65.648 40.148 65.72 39.536 65.72C38.672 65.72 38.204 65.396 38.204 64.496C38.204 63.956 38.24 63.452 38.24 62.948V55.784C38.24 55.28 38.204 54.776 38.204 54.236C38.204 53.264 38.708 53.012 39.608 53.012C40.184 53.012 40.76 53.048 41.336 53.048C41.948 53.012 42.2 52.796 42.2 52.184V51.752C42.2 51.176 41.948 50.888 41.336 50.888H40.616C39.752 50.888 38.888 50.96 38.348 50.96C37.556 50.96 37.592 50.564 37.592 49.448C37.592 48.296 37.556 47.936 38.348 47.936C38.996 47.936 39.788 47.972 40.616 47.972H41.192C41.912 47.972 42.2 47.684 42.2 47C42.236 46.244 42.164 45.524 42.092 44.804V44.48C42.092 44.12 42.344 44.012 42.668 44.012C43.28 44.012 43.892 44.12 44.504 44.156C45.656 44.228 46.232 44.264 46.232 44.66C46.232 44.876 46.088 44.948 45.764 45.164C45.332 45.488 45.368 46.028 45.332 47.036C45.368 47.72 45.692 47.972 46.34 47.972H46.88C47.708 47.972 48.5 47.936 49.148 47.936C49.94 47.936 49.94 48.332 49.94 49.448C49.94 50.564 49.94 50.96 49.148 50.96C48.608 50.96 47.744 50.888 46.88 50.888H46.196C45.584 50.888 45.332 51.14 45.332 51.752V52.184C45.332 52.796 45.584 53.012 46.196 53.048C46.772 53.048 47.384 53.012 47.96 53.012C48.824 53.012 49.4 53.264 49.4 54.2C49.4 54.344 49.364 54.488 49.364 54.632C49.4 54.848 49.472 55.064 49.724 55.064C49.832 55.064 49.94 54.992 50.012 54.92C53.036 52.004 55.844 48.476 57.536 44.588C57.68 44.228 57.788 43.904 58.148 43.904C58.508 43.904 59.768 44.3 60.2 44.444C60.74 44.588 61.784 44.84 61.784 45.272C61.784 45.416 61.676 45.56 61.568 45.632C61.46 45.704 61.352 45.812 61.352 45.92C61.352 45.992 61.388 45.992 61.388 46.064C63.656 49.628 65.636 52.256 68.732 55.136C68.984 55.388 69.344 55.676 69.344 56.036C69.344 56.648 67.4 57.944 66.752 57.944C66.392 57.944 65.708 57.224 65.24 56.756C65.096 56.612 64.808 56.216 64.628 56.216C64.376 56.216 64.232 56.396 64.088 56.54C63.872 56.756 63.656 56.792 63.404 56.792C62.468 56.792 61.568 56.72 60.632 56.72H58.004C57.068 56.72 56.132 56.792 55.232 56.792C54.656 56.792 54.548 56.576 54.404 56.324C54.332 56.18 54.188 56.072 54.044 56.072C53.864 56.072 53.756 56.18 53.648 56.288ZM62.684 72.344C62.756 72.92 63.044 73.028 63.584 73.1H63.944C64.772 73.1 64.736 72.56 64.736 71.372V69.392C64.736 68.78 64.484 68.528 63.908 68.528H63.512C62.936 68.528 62.648 68.78 62.648 69.392V70.724C62.648 71.264 62.684 71.804 62.684 72.344ZM63.512 65.72H63.908C64.412 65.72 64.736 65.36 64.736 64.856V63.236C64.736 62.696 64.412 62.372 63.908 62.372H63.512C63.008 62.372 62.648 62.696 62.648 63.236V64.856C62.648 65.36 63.008 65.72 63.512 65.72ZM59.156 65.72H59.408C59.912 65.72 60.272 65.36 60.272 64.856V63.236C60.272 62.696 59.912 62.372 59.408 62.372H59.156C58.652 62.372 58.292 62.696 58.292 63.236V64.856C58.292 65.36 58.652 65.72 59.156 65.72ZM55.916 64.856V63.236C55.916 62.696 55.556 62.372 55.052 62.372H54.8C54.296 62.372 53.936 62.696 53.936 63.236V64.856C53.936 65.36 54.296 65.72 54.8 65.72H55.052C55.556 65.72 55.916 65.36 55.916 64.856ZM55.052 68.528H54.8C54.188 68.528 53.936 68.78 53.936 69.392V71.264C53.936 72.632 54.008 74 54.008 75.404C54.008 76.412 53.756 76.448 52.496 76.448C51.2 76.448 50.876 76.412 50.876 75.44C50.876 74.036 50.948 72.632 50.948 71.264V63.632C50.948 62.66 50.912 61.688 50.912 60.716C50.912 59.564 51.416 59.24 52.532 59.24C53.396 59.24 54.296 59.312 55.196 59.312H63.512C64.412 59.312 65.276 59.24 66.176 59.24C67.292 59.24 67.832 59.528 67.832 60.716C67.832 61.688 67.76 62.624 67.76 63.596V70.436C67.76 71.228 67.832 72.02 67.832 72.812C67.832 75.404 66.932 76.34 64.052 76.34C63.584 76.34 63.08 76.304 62.9 75.836C62.756 75.584 62.684 75.368 62.252 75.368C62.108 75.368 61.856 75.404 61.676 75.404C60.524 75.404 60.2 75.404 60.2 74.468C60.2 73.208 60.272 71.984 60.272 70.724V69.392C60.272 68.78 60.02 68.528 59.408 68.528H59.156C58.544 68.528 58.292 68.78 58.292 69.392V70.724C58.292 71.948 58.364 73.208 58.364 74.432C58.364 75.296 58.148 75.368 57.104 75.368C56.096 75.368 55.844 75.296 55.844 74.432C55.844 73.208 55.916 71.948 55.916 70.724V69.392C55.916 68.78 55.664 68.528 55.052 68.528ZM97.568 51.932H91.268C90.764 51.932 90.404 52.292 90.404 52.796V53.156C90.404 53.66 90.764 54.02 91.268 54.02H97.568C98.072 54.02 98.432 53.66 98.432 53.156V52.796C98.432 52.292 98.072 51.932 97.568 51.932ZM91.268 49.736H97.568C98.072 49.736 98.432 49.376 98.432 48.872V48.548C98.432 48.044 98.072 47.684 97.568 47.684H91.268C90.764 47.684 90.404 48.044 90.404 48.548V48.872C90.404 49.376 90.764 49.736 91.268 49.736ZM101.852 48.656V53.048C101.852 53.696 101.924 54.38 101.924 55.028C101.924 56.252 101.276 56.648 100.124 56.648C99.188 56.648 98.288 56.576 97.388 56.576H91.484C90.584 56.576 89.684 56.648 88.784 56.648C87.596 56.648 86.912 56.288 86.912 55.028C86.912 54.344 86.984 53.696 86.984 53.048V48.656C86.984 47.972 86.912 47.324 86.912 46.676C86.912 45.416 87.56 45.056 88.748 45.056C89.648 45.056 90.548 45.128 91.484 45.128H97.388C98.288 45.128 99.188 45.056 100.088 45.056C101.24 45.056 101.924 45.38 101.924 46.676C101.924 47.324 101.852 48.008 101.852 48.656ZM98.828 66.116C98.396 66.152 98.18 66.296 98 66.692C96.524 70.112 93.788 73.64 90.8 75.872C90.512 76.088 90.08 76.448 89.756 76.448C89.216 76.448 88.028 75.476 88.028 74.9C88.028 74.576 88.532 74.216 88.784 74.036C91.124 72.488 93.68 69.428 95.084 66.98C95.12 66.872 95.156 66.764 95.156 66.656C95.156 66.26 94.868 66.152 94.544 66.116H94.256C93.644 66.116 93.32 66.26 92.996 66.764C91.988 68.384 90.8 69.86 89.432 71.192C88.028 72.56 87.38 72.992 85.76 74.036C85.616 74.144 85.436 74.18 85.256 74.18C84.716 74.18 83.564 73.136 83.564 72.596C83.564 72.272 84.14 71.984 84.392 71.804C86.588 70.436 88.28 68.924 89.9 66.872C89.972 66.764 90.044 66.692 90.044 66.548C90.044 66.224 89.756 66.152 89.504 66.116H89.36C88.712 66.116 88.46 66.224 88.028 66.656C86.732 68.06 85.364 69.284 83.816 70.292C83.528 70.508 83.096 70.832 82.736 70.832C82.16 70.832 81.008 69.608 81.008 69.032C81.008 68.708 81.368 68.492 81.836 68.168C84.392 66.476 86.264 64.676 87.92 62.084C87.992 61.976 88.028 61.868 88.028 61.76C88.028 61.436 87.776 61.292 87.488 61.256C86.66 61.292 85.22 61.328 84.464 61.328C83.672 61.328 83.708 60.752 83.708 59.744C83.708 58.736 83.672 58.16 84.464 58.16C85.832 58.16 87.164 58.268 88.532 58.268H100.16C101.492 58.268 102.86 58.16 104.228 58.16C105.02 58.16 104.984 58.736 104.984 59.744C104.984 60.752 105.02 61.328 104.228 61.328C102.86 61.328 101.492 61.256 100.16 61.256H92.456C91.916 61.256 91.736 61.4 91.484 61.832C91.412 61.94 91.376 62.048 91.304 62.156C91.268 62.264 91.232 62.372 91.232 62.48C91.232 62.84 91.52 62.948 91.844 62.984H99.008C99.944 62.984 100.88 62.912 101.78 62.912C103.148 62.912 103.4 63.596 103.4 64.82C103.4 67.088 103.076 71.588 102.356 73.64C101.492 76.088 99.548 76.304 97.244 76.304C95.552 76.304 94.94 76.34 94.94 73.532C94.94 73.1 94.976 72.632 95.552 72.632C95.876 72.632 96.452 72.704 96.812 72.74C97.064 72.776 97.28 72.776 97.532 72.776C98.576 72.776 98.864 72.596 99.188 71.588C99.512 70.472 99.764 67.988 99.764 66.8C99.764 66.116 99.368 66.152 98.828 66.116ZM76.292 65C76.976 64.712 77.156 64.424 77.156 63.668V56.072C77.156 55.388 76.904 55.136 76.184 55.064C75.428 55.064 74.636 55.172 73.952 55.172C73.196 55.172 73.232 54.668 73.232 53.408C73.232 52.076 73.196 51.644 73.952 51.644C74.276 51.644 75.716 51.68 76.148 51.716C76.868 51.68 77.156 51.428 77.156 50.708V48.008C77.156 47.036 77.156 46.064 77.048 45.164C77.012 45.056 77.012 44.876 77.012 44.732C77.012 44.336 77.264 44.264 77.624 44.264C78.164 44.264 80.324 44.444 80.972 44.48C81.224 44.516 81.656 44.588 81.656 44.948C81.656 45.2 81.44 45.308 81.116 45.524C80.756 45.74 80.72 46.136 80.72 47.324V50.708C80.72 51.428 81.008 51.716 81.692 51.716C82.52 51.752 83.312 51.644 84.14 51.644C84.86 51.644 84.86 52.04 84.86 53.408C84.86 54.704 84.896 55.172 84.14 55.172C83.6 55.172 82.52 55.1 81.692 55.064C81.008 55.136 80.72 55.388 80.72 56.072V62.264C80.72 62.624 80.864 62.984 81.26 62.984C81.404 62.984 81.512 62.912 81.62 62.876C81.728 62.84 82.088 62.66 82.448 62.48C83.168 62.12 84.104 61.688 84.248 61.688C84.788 61.688 84.896 63.632 84.896 64.028C84.896 64.568 84.752 64.856 84.284 65.108C81.728 66.44 78.488 67.844 75.788 68.924C75.176 69.176 75.068 69.284 74.996 69.5C74.852 69.896 74.744 70.184 74.456 70.184C74.06 70.184 73.952 69.788 73.664 69.032C73.484 68.6 72.836 66.872 72.836 66.512C72.836 66.008 73.34 65.936 73.736 65.828C74.6 65.612 75.428 65.36 76.292 65ZM128.348 53.804C128.132 53.948 127.952 54.092 127.952 54.344C127.952 54.596 128.096 54.74 128.24 54.884C129.068 55.568 129.32 55.748 129.212 56.252C129.212 56.324 129.176 56.396 129.176 56.432C129.176 56.72 129.32 56.864 129.608 56.864H134.828C136.016 56.864 137.312 56.792 137.852 56.792C139.724 56.792 140.624 58.88 140.624 59.384C140.624 60.428 135.188 65.468 134.216 65.468C133.352 65.468 131.876 63.776 131.876 63.2C131.876 62.876 132.164 62.732 133.496 61.868C133.748 61.688 135.044 60.752 135.044 60.464C135.044 60.14 134.54 60.212 134.36 60.212H128.06C127.34 60.212 127.052 60.5 127.052 61.22V69.068C127.052 69.968 127.124 70.868 127.124 71.768C127.124 75.692 123.524 76.16 120.392 76.16C119.852 76.16 119.024 76.16 118.7 75.62C118.376 75.08 118.16 73.784 118.16 73.136C118.16 72.596 118.34 72.164 118.916 72.164C119.096 72.164 119.456 72.2 119.636 72.236C120.032 72.272 120.68 72.308 121.076 72.308C123.416 72.308 123.308 71.696 123.308 69.5V61.22C123.308 60.5 122.984 60.212 122.3 60.212H114.272C112.904 60.212 111.5 60.284 110.096 60.284C109.268 60.284 109.268 59.852 109.268 58.556C109.268 57.188 109.268 56.792 110.096 56.792C111.5 56.792 112.904 56.864 114.272 56.864H124.064C124.244 56.864 124.46 56.792 124.46 56.54C124.46 56.432 124.424 56.36 124.316 56.252C122.696 54.956 121.004 53.732 119.24 52.616C118.916 52.436 118.412 52.184 118.412 51.788C118.412 51.14 119.816 49.556 120.5 49.556C121.076 49.556 123.416 51.212 123.992 51.644C124.244 51.824 124.532 51.968 124.82 51.968C125.108 51.968 125.324 51.86 125.576 51.752C126.116 51.428 129.392 49.592 129.392 49.124C129.392 48.764 128.852 48.836 128.564 48.836H118.736C117.368 48.836 116.036 48.908 114.668 48.908C113.768 48.908 113.804 48.512 113.804 47.108C113.804 45.668 113.804 45.344 114.668 45.344C116.036 45.344 117.368 45.452 118.736 45.452H130.58C131.588 45.452 132.596 45.38 133.568 45.38C134.324 45.38 134.612 45.632 135.08 46.136C135.44 46.532 136.124 47.432 136.124 47.936C136.124 49.196 129.608 53.084 128.348 53.804ZM160.676 70.472C160.676 71.192 158.696 71.624 158.444 71.624C157.904 71.624 157.796 71.12 157.688 70.688C157.4 69.644 156.464 67.052 156.068 66.044C155.96 65.828 155.852 65.576 155.852 65.36C155.852 64.64 157.688 64.316 157.904 64.316C158.228 64.316 158.408 64.46 158.552 64.712C158.66 64.892 159.776 67.664 159.92 68.06C160.064 68.492 160.676 70.112 160.676 70.472ZM147.284 64.676C147.608 64.676 149.48 65.216 149.912 65.324C150.164 65.396 150.416 65.54 150.416 65.828C150.416 66.044 150.2 66.152 150.02 66.224C149.624 66.368 149.588 66.548 149.516 66.944C149.3 68.24 148.4 71.912 148.004 73.172C147.86 73.568 147.716 74.108 147.212 74.108C146.78 74.108 144.944 73.676 144.944 73.028C144.944 72.74 145.34 71.66 145.484 71.336C145.988 69.86 146.6 66.872 146.816 65.252C146.852 64.964 146.924 64.676 147.284 64.676ZM168.524 65.576C168.524 66.476 166.328 67.052 166.004 67.052C165.464 67.052 165.32 66.548 165.176 66.152C164.42 64.244 163.556 62.336 162.584 60.536C162.476 60.356 162.296 59.996 162.296 59.78C162.296 59.096 164.312 58.304 164.78 58.304C165.14 58.304 165.356 58.556 165.5 58.808C166.04 59.78 166.58 60.86 167.048 61.868C167.336 62.48 168.524 65.072 168.524 65.576ZM163.268 55.028C162.836 55.856 162.404 56.72 161.9 57.512C161.72 57.8 161.468 58.124 161.108 58.124C160.424 58.124 158.48 57.332 158.48 56.684C158.48 56.468 158.696 56.18 158.804 55.964C160.892 52.616 162.656 48.368 163.52 44.516C163.592 44.228 163.664 43.976 164.06 43.976C164.384 43.976 165.86 44.372 166.292 44.48C167.084 44.66 167.768 44.84 167.768 45.236C167.768 45.488 167.48 45.596 167.3 45.668C166.868 45.848 166.832 46.028 166.436 47.18C166.256 47.756 166.004 48.62 165.536 49.88C165.5 49.988 165.464 50.06 165.464 50.168C165.464 50.744 166.004 50.744 166.184 50.78H171.008C172.052 50.78 173.06 50.708 174.068 50.708C175.868 50.708 175.796 51.86 175.796 53.372C175.796 58.304 175.436 66.332 174.428 71.084C174.104 72.668 173.672 74.288 172.196 75.152C170.936 75.908 168.524 76.16 167.084 76.16C165.428 76.16 165.176 75.836 164.924 75.008C164.78 74.432 164.672 73.712 164.672 73.136C164.672 72.524 164.816 72.2 165.464 72.2C166.04 72.2 166.94 72.344 167.876 72.344C169.244 72.344 170.54 72.344 171.08 69.932C171.764 66.908 172.196 58.772 172.196 55.496C172.196 54.056 171.836 54.2 169.388 54.2H164.636C163.916 54.2 163.628 54.38 163.268 55.028ZM155.024 59.132C155.168 59.096 155.672 59.024 155.672 58.52C155.672 58.376 155.6 58.268 155.564 58.16C155.456 57.908 155.096 57.368 155.096 57.08C155.096 56.432 156.788 55.748 157.292 55.748C157.688 55.748 157.868 56.108 158.012 56.396C158.804 57.98 159.236 58.88 159.812 60.176C160.136 60.896 160.604 62.012 160.604 62.372C160.604 63.164 158.588 63.632 158.336 63.632C157.832 63.632 157.724 63.092 157.544 62.66C157.364 62.192 157.076 61.904 156.536 61.904C156.248 61.904 155.636 62.012 155.492 62.048C154.808 62.156 154.592 62.516 154.592 63.164V70.436C154.592 71.948 154.664 73.496 154.664 75.044C154.664 76.16 154.34 76.196 152.792 76.196C151.28 76.196 150.92 76.16 150.92 75.044C150.92 73.496 151.028 71.984 151.028 70.436V63.632C151.028 63.128 150.776 62.732 150.2 62.732C150.164 62.732 149.3 62.84 149.228 62.84C148.508 62.948 148.04 62.948 147.032 63.056C146.708 63.092 146.672 63.164 146.528 63.452C146.42 63.668 146.276 63.884 146.024 63.884C145.628 63.884 145.52 63.38 145.268 62.12C145.196 61.724 145.088 61.22 144.944 60.608C144.908 60.464 144.872 60.284 144.872 60.104C144.872 59.708 145.304 59.744 146.42 59.708C146.816 59.708 147.212 59.672 147.608 59.672C148.292 59.636 148.616 59.456 149.012 58.916C149.264 58.52 149.516 58.16 149.768 57.764C149.876 57.584 150.02 57.368 150.02 57.116C150.02 56.756 149.84 56.576 149.624 56.288C148.328 55.064 147.032 53.804 145.628 52.724C145.412 52.544 145.16 52.4 145.16 52.112C145.16 51.572 145.7 51.032 145.952 50.564C146.132 50.24 146.492 49.664 146.924 49.664C147.14 49.664 147.356 49.88 147.5 50.024C147.644 50.096 147.788 50.204 147.968 50.204C148.22 50.204 148.364 50.024 148.508 49.808C149.3 48.188 150.164 46.1 150.704 44.372C150.776 44.156 150.848 43.904 151.136 43.904C151.352 43.904 153.404 44.732 153.728 44.912C153.98 45.02 154.412 45.164 154.412 45.488C154.412 45.812 154.052 45.848 153.8 45.92C153.548 45.956 153.404 46.1 153.296 46.316C152.36 48.26 151.64 49.772 150.524 51.68C150.416 51.86 150.344 52.004 150.344 52.22C150.344 52.544 150.488 52.724 150.668 52.94L151.316 53.588C151.46 53.732 151.64 53.84 151.856 53.84C152.144 53.84 152.324 53.66 152.468 53.48C153.44 51.824 154.16 50.492 154.988 48.764C155.132 48.476 155.204 48.188 155.528 48.188C155.744 48.188 156.752 48.692 157.364 48.98C157.58 49.088 157.76 49.196 157.868 49.232C158.192 49.376 159.02 49.7 159.02 50.096C159.02 50.42 158.768 50.456 158.552 50.492C158.192 50.564 158.048 50.6 157.832 50.924C156.824 52.652 153.98 56.936 152.756 58.628C152.684 58.736 152.648 58.808 152.648 58.916C152.648 59.204 152.864 59.312 153.116 59.312C153.764 59.276 154.376 59.204 155.024 59.132ZM187.172 70.4C187.172 70.112 187.64 70.04 187.856 69.968C188.828 69.752 191.132 68.924 192.14 68.528C195.632 67.124 198.476 65.576 201.104 62.876C204.02 59.816 205.856 55.928 207.26 52.004C207.404 51.644 207.548 51.14 208.016 51.14C208.556 51.14 210.716 53.12 210.716 53.84C210.716 54.092 210.428 54.74 210.248 55.244C210.176 55.496 210.068 55.676 210.032 55.82C208.592 59.384 206.144 63.272 203.372 66.008C200.024 69.284 195.452 71.696 191.06 73.28C190.196 73.604 190.124 73.676 189.692 74.324C189.62 74.432 189.476 74.54 189.332 74.54C188.936 74.54 188.648 73.748 188.432 73.316C188.036 72.452 187.64 71.588 187.244 70.724C187.208 70.652 187.172 70.508 187.172 70.4ZM184.616 57.296C184.616 56.72 185.984 54.524 186.668 54.524C187.136 54.524 190.52 56.612 191.132 57.008C192.104 57.584 193.94 58.592 193.94 59.168C193.94 59.816 192.5 61.94 191.78 61.94C191.528 61.94 191.168 61.688 190.952 61.544C188.936 60.104 187.352 59.132 185.228 57.908C184.976 57.764 184.616 57.62 184.616 57.296ZM194.228 48.584C194.48 48.728 194.66 48.872 194.768 48.944C195.524 49.484 196.82 50.384 197.468 50.924C197.684 51.104 197.864 51.284 197.864 51.536C197.864 52.184 196.352 54.2 195.704 54.2C195.416 54.2 195.02 53.912 194.804 53.732C193.112 52.364 191.348 51.068 189.512 49.916C189.26 49.772 188.9 49.556 188.9 49.232C188.9 48.728 190.448 46.748 191.096 46.748C191.528 46.748 193.256 47.936 194.228 48.584ZM228.608 49.448H238.4C238.976 49.448 239.588 49.448 239.948 49.376C240.164 49.376 240.524 49.304 240.74 49.304C241.496 49.304 243.044 51.284 243.044 51.752C243.044 51.932 242.648 52.508 242.252 53.156C242.036 53.48 241.82 53.84 241.676 54.092C240.236 56.504 238.796 58.772 236.996 60.932C236.816 61.148 236.708 61.328 236.708 61.616C236.708 62.048 236.924 62.264 237.248 62.48C239.228 63.776 241.532 65.54 243.332 67.124C244.196 67.88 245.096 68.708 245.924 69.572C246.068 69.716 246.176 69.86 246.176 70.076C246.176 70.832 244.196 72.956 243.44 72.956C243.044 72.956 242.792 72.704 242.54 72.416C239.948 69.32 237.788 67.592 234.584 65.288C234.296 65.072 234.08 64.964 233.756 64.964C233.288 64.964 232.964 65.324 232.676 65.576C230.012 68.06 226.916 70.22 223.676 71.876C223.352 72.056 222.416 72.56 222.092 72.56C221.336 72.56 219.68 70.148 219.68 69.5C219.68 69.068 220.112 68.888 220.436 68.78C226.808 66.332 232.856 60.824 236.492 55.136C236.672 54.848 237.104 54.236 237.104 53.912C237.104 53.372 236.6 53.3 236.06 53.3H228.608C227.06 53.3 225.512 53.372 223.964 53.372C222.992 53.372 223.064 52.832 223.064 51.176C223.064 49.916 223.028 49.376 223.928 49.376C225.476 49.376 227.024 49.448 228.608 49.448ZM259.928 56.864H277.892C279.404 56.864 280.916 56.756 282.464 56.756C283.58 56.756 283.544 57.044 283.544 58.736C283.544 59.96 283.544 60.644 282.572 60.644C280.988 60.644 279.44 60.572 277.892 60.572H273.176C272.168 60.572 272.132 61.508 272.024 62.264C271.232 67.34 268.784 71.12 264.248 73.604C263.564 73.964 261.188 75.188 260.504 75.188C259.712 75.188 257.732 72.812 257.732 72.2C257.732 71.804 258.416 71.66 258.74 71.588C260.288 71.156 261.872 70.58 263.24 69.716C265.544 68.312 267.164 65.756 267.776 63.164C267.848 62.84 268.1 61.688 268.1 61.4C268.1 60.932 267.704 60.572 267.236 60.572H259.928C258.452 60.572 256.94 60.644 255.428 60.644C254.492 60.644 254.456 60.104 254.456 58.808C254.456 57.152 254.564 56.756 255.356 56.756C256.904 56.756 258.416 56.864 259.928 56.864ZM264.824 47.432H272.564C274.112 47.432 275.66 47.36 277.244 47.36C278.216 47.36 278.18 47.828 278.18 49.592C278.18 50.708 278.216 51.212 277.208 51.212C275.696 51.212 274.148 51.14 272.6 51.14H264.752C263.204 51.14 261.656 51.212 260.144 51.212C259.064 51.212 259.172 50.636 259.172 49.268C259.172 47.756 259.208 47.36 260.144 47.36C261.692 47.36 263.24 47.432 264.824 47.432ZM303.82 46.748C304.252 46.748 306.484 47.792 307.024 48.044C307.276 48.188 307.96 48.44 307.96 48.764C307.96 48.98 307.708 49.124 307.528 49.196C306.736 49.556 306.556 50.096 305.62 51.86C303.46 56 301.516 60.248 299.392 64.424C299.284 64.676 299.068 65.072 299.068 65.36C299.068 65.72 299.356 66.008 299.716 66.008C299.968 66.008 300.544 65.936 300.796 65.9C303.928 65.576 307.024 65.252 310.12 64.856C310.516 64.82 311.128 64.784 311.128 64.244C311.128 63.596 308.392 61.22 307.78 60.68C307.528 60.428 307.132 60.14 307.132 59.78C307.132 59.204 308.896 57.476 309.544 57.476C310.444 57.476 314.728 62.228 315.52 63.128C316.168 63.92 319.336 67.808 319.336 68.6C319.336 69.464 317.32 70.94 316.528 70.94C316.096 70.94 315.808 70.4 315.628 70.04C314.692 68.528 314.404 67.916 313.648 67.916C313.54 67.916 295.792 70.112 293.776 70.364C292.552 70.508 292.552 70.436 292.156 70.976C292.048 71.12 291.94 71.264 291.724 71.264C291.292 71.264 291.04 70.184 290.752 68.816C290.68 68.384 290.608 67.952 290.464 67.484C290.428 67.304 290.356 67.124 290.356 66.944C290.356 66.548 290.68 66.512 291.148 66.512H291.76C294.208 66.512 294.316 66.368 294.856 65.36C296.188 62.84 302.524 49.7 303.208 47.468C303.316 47.18 303.424 46.748 303.82 46.748Z" fill="black"/>
</svg>
