<svg width="564" height="75" viewBox="0 0 564 75" fill="none" xmlns="http://www.w3.org/2000/svg">
<path d="M4.004 69.264V52.016H17.996V69.264H4.004ZM6.798 66.756H15.202V61.674H6.798V66.756ZM6.798 59.276H15.202V54.524H6.798V59.276ZM36.52 70.694C36.4907 70.3273 36.4173 69.8873 36.3 69.374C36.1973 68.8607 36.08 68.45 35.948 68.142H37.488C37.796 68.142 38.016 68.0907 38.148 67.988C38.28 67.8853 38.346 67.6873 38.346 67.394V63.676H33.792C34.1293 63.9107 34.4887 64.182 34.87 64.49C35.2513 64.798 35.6107 65.106 35.948 65.414C36.3 65.7073 36.5787 65.9787 36.784 66.228C36.6227 66.36 36.4173 66.558 36.168 66.822C35.9333 67.0713 35.706 67.328 35.486 67.592C35.2807 67.8413 35.134 68.032 35.046 68.164C34.826 67.8413 34.5253 67.4893 34.144 67.108C33.7627 66.712 33.3667 66.3453 32.956 66.008C32.56 65.656 32.2153 65.3847 31.922 65.194L33.286 63.676H31.394V61.366H38.346V59.562H31.064V57.23H35.618V55.404H31.592V53.094H35.618V50.564H38.368V53.094H42.658V55.404H38.368V57.23H43.494V59.562H41.03V61.366H43.252V63.676H41.03V68.34C41.03 69.9093 40.0913 70.694 38.214 70.694H36.52ZM23.958 66.778V52.258H30.536V66.778H23.958ZM26.378 64.446H28.116V60.64H26.378V64.446ZM26.378 58.33H28.116V54.568H26.378V58.33ZM57.97 70.32C56.4153 70.32 55.1027 70.2393 54.032 70.078C52.976 69.9313 52.096 69.6967 51.392 69.374C50.688 69.066 50.1013 68.6773 49.632 68.208C49.368 68.4133 49.0453 68.648 48.664 68.912C48.2827 69.1613 47.894 69.4107 47.498 69.66C47.102 69.9093 46.75 70.122 46.442 70.298L45.408 67.812C45.6573 67.724 45.9653 67.5993 46.332 67.438C46.6987 67.2767 47.058 67.108 47.41 66.932C47.7767 66.756 48.07 66.6093 48.29 66.492V60.816H45.804V58.572H50.6V66.206C50.8493 66.9247 51.634 67.438 52.954 67.746C52.8073 67.4967 52.6387 67.2473 52.448 66.998C52.2573 66.734 52.0667 66.5067 51.876 66.316C52.184 66.228 52.536 66.096 52.932 65.92C53.3427 65.7293 53.7607 65.524 54.186 65.304C54.6113 65.0693 54.9853 64.8493 55.308 64.644H51.414V62.928H54.648V61.586H51.964V59.848H54.648V58.506H52.998C52.4553 58.506 52.0593 58.4107 51.81 58.22C51.5753 58.0293 51.458 57.7287 51.458 57.318V53.732H55.286V52.676H51.458V50.872H57.354V55.426H53.614V56.196C53.614 56.5187 53.812 56.68 54.208 56.68H55.264C55.572 56.68 55.792 56.6067 55.924 56.46C56.056 56.2987 56.1513 55.9907 56.21 55.536C56.3567 55.5947 56.5473 55.6753 56.782 55.778C57.0313 55.866 57.2807 55.954 57.53 56.042C57.7793 56.1153 57.9773 56.174 58.124 56.218C57.9773 56.8047 57.816 57.274 57.64 57.626C57.464 57.978 57.2293 58.22 56.936 58.352V59.848H59.466V58.462C58.7913 58.3593 58.454 57.978 58.454 57.318V53.732H62.524V52.676H58.454V50.872H64.592V55.426H60.808V56.196C60.808 56.5187 61.006 56.68 61.402 56.68H62.502C62.81 56.68 63.03 56.6067 63.162 56.46C63.294 56.2987 63.3893 55.9907 63.448 55.536C63.5947 55.5947 63.7927 55.6753 64.042 55.778C64.306 55.866 64.57 55.954 64.834 56.042C65.098 56.1153 65.3033 56.174 65.45 56.218C65.274 57.0247 65.0467 57.6113 64.768 57.978C64.4893 58.33 64.086 58.506 63.558 58.506H61.754V59.848H64.944V61.586H61.754V62.928H65.538V64.644H60.962C61.2993 64.8493 61.6807 65.0693 62.106 65.304C62.5313 65.524 62.9493 65.7293 63.36 65.92C63.7707 66.096 64.1227 66.228 64.416 66.316C64.1813 66.536 63.9467 66.8147 63.712 67.152C63.492 67.4747 63.3087 67.768 63.162 68.032C64.3353 67.9733 65.3107 67.8853 66.088 67.768C66.0147 67.9293 65.934 68.1713 65.846 68.494C65.758 68.802 65.6773 69.1173 65.604 69.44C65.5453 69.7773 65.5087 70.056 65.494 70.276C65.0833 70.276 64.548 70.276 63.888 70.276C63.2427 70.2907 62.546 70.298 61.798 70.298C61.0647 70.3127 60.3607 70.32 59.686 70.32C59.0113 70.32 58.4393 70.32 57.97 70.32ZM57.97 68.142C58.9233 68.142 59.8033 68.1347 60.61 68.12C61.4167 68.1053 62.1573 68.0833 62.832 68.054C62.4067 67.878 61.9373 67.658 61.424 67.394C60.9253 67.1153 60.4413 66.822 59.972 66.514C59.5027 66.206 59.1067 65.92 58.784 65.656L59.774 64.644H56.518L57.508 65.656C57.2147 65.9053 56.8553 66.1693 56.43 66.448C56.0193 66.7267 55.5793 66.9907 55.11 67.24C54.6553 67.4893 54.2153 67.7093 53.79 67.9C54.3473 67.988 54.9707 68.054 55.66 68.098C56.3493 68.1273 57.1193 68.142 57.97 68.142ZM49.17 55.866C48.95 55.514 48.6567 55.1253 48.29 54.7C47.938 54.2747 47.564 53.864 47.168 53.468C46.772 53.0573 46.398 52.72 46.046 52.456L47.74 50.982C48.092 51.2313 48.4733 51.5467 48.884 51.928C49.2947 52.3093 49.698 52.7053 50.094 53.116C50.49 53.512 50.8127 53.886 51.062 54.238C50.9153 54.3407 50.7173 54.4947 50.468 54.7C50.2187 54.8907 49.9693 55.096 49.72 55.316C49.4853 55.536 49.302 55.7193 49.17 55.866ZM56.936 62.928H59.466V61.586H56.936V62.928ZM76.076 70.65C75.9 70.518 75.6727 70.364 75.394 70.188C75.1153 70.0267 74.8367 69.8727 74.558 69.726C74.2793 69.5793 74.0373 69.4767 73.832 69.418C74.9027 68.142 75.6873 66.6753 76.186 65.018C76.6847 63.346 76.934 61.366 76.934 59.078V51.532H87.384V59.694H83.38C83.6147 61.3953 84.1867 63.038 85.096 64.622C86.02 66.206 87.318 67.5407 88.99 68.626C88.7993 68.7433 88.5793 68.9193 88.33 69.154C88.0807 69.4033 87.846 69.6527 87.626 69.902C87.406 70.166 87.2373 70.3933 87.12 70.584C83.7907 68.3107 81.7153 64.6807 80.894 59.694H79.508C79.464 61.8207 79.1707 63.7933 78.628 65.612C78.1 67.4307 77.2493 69.11 76.076 70.65ZM69.41 70.606C69.3953 70.386 69.3587 70.1073 69.3 69.77C69.2413 69.4327 69.1753 69.11 69.102 68.802C69.0433 68.4793 68.97 68.2227 68.882 68.032H70.29C70.5833 68.032 70.7887 67.988 70.906 67.9C71.038 67.7973 71.104 67.6067 71.104 67.328V63.72C70.5613 63.9253 70.07 64.1087 69.63 64.27C69.19 64.4313 68.8673 64.5413 68.662 64.6L68.068 61.916C68.4053 61.8427 68.8453 61.7253 69.388 61.564C69.9307 61.4027 70.5027 61.2267 71.104 61.036V57.098H68.486V54.7H71.104V50.63H73.612V54.7H75.746V57.098H73.612V60.2C74.1253 60.0093 74.58 59.8407 74.976 59.694C75.372 59.5327 75.6653 59.4007 75.856 59.298V61.74C75.68 61.8427 75.3867 61.982 74.976 62.158C74.58 62.334 74.1253 62.5247 73.612 62.73V68.428C73.612 69.1907 73.392 69.7407 72.952 70.078C72.512 70.43 71.852 70.606 70.972 70.606H69.41ZM79.53 57.45H84.81V53.754H79.53V57.45Z" fill="#9D9D9D"/>
<path d="M244.26 70.804C244.216 70.4373 244.15 69.9827 244.062 69.44C243.989 68.8973 243.893 68.4647 243.776 68.142H245.866C246.174 68.142 246.394 68.0907 246.526 67.988C246.658 67.8853 246.724 67.6873 246.724 67.394V60.2H238.122V57.78H247.626C246.907 57.34 246.167 56.9147 245.404 56.504C244.641 56.0933 244.003 55.778 243.49 55.558L244.876 53.644C245.287 53.8053 245.778 54.0327 246.35 54.326C246.922 54.6193 247.501 54.9347 248.088 55.272C248.352 55.0813 248.645 54.8687 248.968 54.634C249.291 54.3993 249.599 54.172 249.892 53.952C250.2 53.7173 250.435 53.534 250.596 53.402H239.926V51.18H254.842L255.656 52.126C255.231 52.4927 254.681 52.94 254.006 53.468C253.346 53.9813 252.664 54.502 251.96 55.03C251.256 55.558 250.611 56.0347 250.024 56.46C250.42 56.6947 250.772 56.9367 251.08 57.186L250.596 57.78H256.998L257.9 58.594C257.621 59.0193 257.255 59.5253 256.8 60.112C256.36 60.684 255.876 61.278 255.348 61.894C254.835 62.51 254.321 63.0967 253.808 63.654C253.295 64.1967 252.825 64.6587 252.4 65.04C252.195 64.8053 251.901 64.534 251.52 64.226C251.139 63.9033 250.787 63.6467 250.464 63.456C250.772 63.1773 251.117 62.8473 251.498 62.466C251.879 62.07 252.253 61.674 252.62 61.278C253.001 60.8673 253.317 60.508 253.566 60.2H249.342V68.45C249.342 69.2713 249.107 69.8653 248.638 70.232C248.169 70.6133 247.457 70.804 246.504 70.804H244.26ZM264.28 70.606V61.762C263.649 61.8353 263.041 61.9087 262.454 61.982C261.867 62.0553 261.361 62.1067 260.936 62.136L260.518 59.76C260.753 59.76 261.017 59.7527 261.31 59.738C261.603 59.7233 261.911 59.7087 262.234 59.694C262.469 59.4447 262.725 59.1587 263.004 58.836C263.283 58.4987 263.561 58.1393 263.84 57.758C263.356 57.362 262.799 56.9293 262.168 56.46C261.552 55.9907 260.965 55.5873 260.408 55.25L261.728 53.38C261.86 53.468 261.999 53.5633 262.146 53.666C262.307 53.754 262.469 53.8493 262.63 53.952C262.85 53.6147 263.077 53.2333 263.312 52.808C263.561 52.3827 263.789 51.9647 263.994 51.554C264.214 51.1287 264.383 50.7767 264.5 50.498L266.568 51.4C266.216 52.016 265.835 52.6613 265.424 53.336C265.013 54.0107 264.625 54.6047 264.258 55.118C264.434 55.25 264.603 55.382 264.764 55.514C264.925 55.6313 265.072 55.7487 265.204 55.866C265.644 55.2207 266.047 54.6047 266.414 54.018C266.795 53.4313 267.081 52.9473 267.272 52.566L269.296 53.71C269.003 54.238 268.621 54.8393 268.152 55.514C267.697 56.174 267.213 56.8487 266.7 57.538C266.187 58.2273 265.688 58.88 265.204 59.496C265.585 59.4667 265.952 59.4373 266.304 59.408C266.656 59.364 266.979 59.3273 267.272 59.298C267.184 59.1073 267.089 58.9313 266.986 58.77C266.898 58.6087 266.81 58.4547 266.722 58.308L268.636 57.406C268.665 57.4647 268.695 57.516 268.724 57.56C268.768 57.604 268.805 57.6553 268.834 57.714C269.303 57.054 269.736 56.3133 270.132 55.492C270.528 54.656 270.865 53.8127 271.144 52.962C271.437 52.1113 271.643 51.3413 271.76 50.652L274.246 51.158C274.129 51.6567 273.989 52.1773 273.828 52.72C273.667 53.2627 273.483 53.8053 273.278 54.348H279.856V58.154C279.856 59.43 279.841 60.53 279.812 61.454C279.797 62.378 279.768 63.1847 279.724 63.874C279.68 64.5633 279.621 65.2013 279.548 65.788C279.431 66.932 279.181 67.834 278.8 68.494C278.433 69.1393 277.942 69.594 277.326 69.858C276.725 70.1367 275.999 70.276 275.148 70.276H273.388C273.359 69.9093 273.285 69.4767 273.168 68.978C273.051 68.4647 272.926 68.054 272.794 67.746H275.104C275.691 67.746 276.131 67.5993 276.424 67.306C276.717 67.0127 276.945 66.4113 277.106 65.502C277.209 64.9007 277.282 64.028 277.326 62.884C277.385 61.7253 277.414 60.1487 277.414 58.154V56.614H272.332C272.097 57.098 271.848 57.5673 271.584 58.022C271.32 58.4767 271.041 58.8947 270.748 59.276C270.557 59.1293 270.323 58.9753 270.044 58.814C269.765 58.6527 269.494 58.506 269.23 58.374C269.523 58.8727 269.802 59.3933 270.066 59.936C270.345 60.4787 270.557 60.9627 270.704 61.388C270.425 61.4907 270.073 61.6447 269.648 61.85C269.223 62.0407 268.878 62.2167 268.614 62.378C268.555 62.2167 268.489 62.0333 268.416 61.828C268.343 61.6227 268.262 61.4173 268.174 61.212C267.954 61.2413 267.719 61.278 267.47 61.322C267.221 61.3513 266.957 61.388 266.678 61.432V70.606H264.28ZM262.3 68.45C262.021 68.3327 261.662 68.208 261.222 68.076C260.782 67.944 260.415 67.8633 260.122 67.834C260.357 67.438 260.584 66.9393 260.804 66.338C261.024 65.7367 261.215 65.1133 261.376 64.468C261.552 63.8227 261.677 63.236 261.75 62.708L263.862 63.126C263.803 63.654 263.686 64.2553 263.51 64.93C263.349 65.6047 263.158 66.2573 262.938 66.888C262.733 67.504 262.52 68.0247 262.3 68.45ZM273.85 64.402C273.689 63.9473 273.469 63.4487 273.19 62.906C272.926 62.3487 272.633 61.8133 272.31 61.3C272.002 60.772 271.701 60.3247 271.408 59.958L273.388 58.902C273.872 59.4887 274.349 60.1853 274.818 60.992C275.287 61.7987 275.669 62.554 275.962 63.258C275.639 63.3753 275.265 63.544 274.84 63.764C274.429 63.984 274.099 64.1967 273.85 64.402ZM268.438 67.57C268.306 67.1887 268.152 66.712 267.976 66.14C267.8 65.5533 267.631 64.974 267.47 64.402C267.323 63.8153 267.206 63.3387 267.118 62.972L269.23 62.444C269.318 62.8107 269.443 63.2653 269.604 63.808C269.765 64.3507 269.941 64.8933 270.132 65.436C270.323 65.964 270.499 66.3967 270.66 66.734C270.469 66.7633 270.227 66.8293 269.934 66.932C269.655 67.0347 269.377 67.1447 269.098 67.262C268.834 67.3647 268.614 67.4673 268.438 67.57ZM292.88 70.43V61.806C292.689 61.9967 292.484 62.1947 292.264 62.4C292.059 62.5907 291.846 62.774 291.626 62.95C291.553 62.818 291.45 62.6713 291.318 62.51C291.186 62.3487 291.039 62.1947 290.878 62.048V68.824H284.828V63.236C284.579 63.632 284.293 64.0133 283.97 64.38C283.75 64.1747 283.442 63.9253 283.046 63.632C282.665 63.3387 282.335 63.126 282.056 62.994C282.496 62.4953 282.921 61.9013 283.332 61.212C283.743 60.508 284.109 59.76 284.432 58.968C284.769 58.1613 285.048 57.3547 285.268 56.548C285.488 55.7413 285.635 54.986 285.708 54.282H283.178V52.016H290.812V54.282H288.194C288.018 55.734 287.673 57.186 287.16 58.638H290.878V60.684C291.787 59.8627 292.572 58.924 293.232 57.868C293.907 56.812 294.449 55.6827 294.86 54.48H293.518V56.658H291.252V52.434H295.432C295.505 52.0967 295.571 51.7593 295.63 51.422C295.703 51.07 295.755 50.718 295.784 50.366L298.27 50.608C298.211 50.9307 298.145 51.246 298.072 51.554C298.013 51.8473 297.947 52.1407 297.874 52.434H302.89V56.658H300.646V54.48H297.28C297.075 55.096 296.84 55.6973 296.576 56.284C296.312 56.856 296.033 57.4133 295.74 57.956H297.104C297.309 57.5013 297.5 57.0027 297.676 56.46C297.867 55.9173 298.006 55.4627 298.094 55.096L300.404 55.602C300.316 55.8953 300.184 56.2693 300.008 56.724C299.832 57.164 299.663 57.5747 299.502 57.956H302.296V60.002H299.348V61.454H301.834V63.456H299.348V64.886H301.834V66.866H299.348V68.362H302.516V70.43H292.88ZM287.006 66.536H288.634V60.882H287.006V66.536ZM295.212 68.362H297.082V66.866H295.212V68.362ZM295.212 61.454H297.082V60.002H295.212V61.454ZM295.212 64.886H297.082V63.456H295.212V64.886ZM314.044 61.454C313.912 61.19 313.721 60.882 313.472 60.53C313.223 60.1633 312.981 59.87 312.746 59.65C313.509 59.3273 314.161 58.946 314.704 58.506C315.261 58.0513 315.723 57.5527 316.09 57.01C315.738 56.8193 315.386 56.6433 315.034 56.482C314.682 56.3207 314.345 56.1887 314.022 56.086L315.144 54.15C315.437 54.2527 315.745 54.3773 316.068 54.524C316.391 54.656 316.713 54.8027 317.036 54.964C317.109 54.7147 317.168 54.4653 317.212 54.216C317.256 53.9667 317.293 53.71 317.322 53.446H313.978V51.29H324.538C324.538 52.0527 324.523 52.874 324.494 53.754C324.465 54.6193 324.421 55.4407 324.362 56.218C324.303 56.9953 324.223 57.626 324.12 58.11C323.929 59.0927 323.585 59.7747 323.086 60.156C322.587 60.5227 321.854 60.706 320.886 60.706H319.83C319.815 60.5007 319.786 60.2587 319.742 59.98C319.698 59.7013 319.639 59.4227 319.566 59.144L319.544 59.188C319.133 58.8653 318.642 58.5207 318.07 58.154C317.615 58.8287 317.051 59.4447 316.376 60.002C315.716 60.5593 314.939 61.0433 314.044 61.454ZM305.926 70.122V63.786H312.592V67.834C312.783 67.438 312.973 66.976 313.164 66.448C313.369 65.92 313.545 65.392 313.692 64.864C313.853 64.336 313.971 63.874 314.044 63.478L316.156 63.918C316.024 64.7687 315.782 65.678 315.43 66.646C315.093 67.614 314.711 68.4573 314.286 69.176C314.081 69.044 313.817 68.912 313.494 68.78C313.186 68.6333 312.885 68.5087 312.592 68.406V70.122H305.926ZM318.268 70.32C317.593 70.32 317.109 70.21 316.816 69.99C316.523 69.77 316.376 69.3887 316.376 68.846V62.994H318.4C317.872 62.51 317.366 62.114 316.882 61.806L318.224 60.2C318.693 60.508 319.207 60.8967 319.764 61.366C320.336 61.8353 320.842 62.3047 321.282 62.774C321.091 62.9647 320.842 63.236 320.534 63.588C320.241 63.9253 319.999 64.2187 319.808 64.468C319.661 64.2773 319.485 64.0793 319.28 63.874C319.089 63.654 318.877 63.4413 318.642 63.236V67.46C318.642 67.6507 318.679 67.7827 318.752 67.856C318.825 67.9293 318.972 67.966 319.192 67.966H319.742C319.947 67.966 320.101 67.9293 320.204 67.856C320.307 67.768 320.38 67.592 320.424 67.328C320.483 67.0493 320.527 66.624 320.556 66.052C320.717 66.1253 320.93 66.2133 321.194 66.316C321.473 66.404 321.759 66.492 322.052 66.58C322.345 66.6533 322.595 66.7193 322.8 66.778C322.712 67.7313 322.558 68.4647 322.338 68.978C322.133 69.4913 321.839 69.8433 321.458 70.034C321.077 70.2247 320.585 70.32 319.984 70.32H318.268ZM305.024 56.46V54.458H313.296V56.46H305.024ZM306.102 53.38V51.312H312.328V53.38H306.102ZM306.08 62.664V60.64H312.328V62.664H306.08ZM306.08 59.562V57.538H312.328V59.562H306.08ZM323.966 68.692C323.775 68.2373 323.526 67.7313 323.218 67.174C322.91 66.6167 322.573 66.074 322.206 65.546C321.854 65.0033 321.502 64.534 321.15 64.138L322.932 62.906C323.313 63.3313 323.687 63.8153 324.054 64.358C324.435 64.9007 324.787 65.4507 325.11 66.008C325.433 66.5507 325.697 67.0347 325.902 67.46C325.726 67.5333 325.506 67.6507 325.242 67.812C324.993 67.9587 324.751 68.1127 324.516 68.274C324.281 68.4353 324.098 68.5747 323.966 68.692ZM319.984 58.396H320.512C321.04 58.396 321.37 58.3153 321.502 58.154C321.649 57.9927 321.759 57.714 321.832 57.318C321.891 57.054 321.935 56.6947 321.964 56.24C322.008 55.7853 322.037 55.3087 322.052 54.81C322.081 54.2967 322.096 53.842 322.096 53.446H319.61C319.566 53.9007 319.5 54.348 319.412 54.788C319.339 55.2133 319.236 55.624 319.104 56.02C319.427 56.196 319.735 56.3793 320.028 56.57C320.321 56.746 320.585 56.9147 320.82 57.076C320.717 57.2227 320.585 57.4207 320.424 57.67C320.277 57.9047 320.131 58.1467 319.984 58.396ZM308.236 68.098H310.282V65.81H308.236V68.098Z" fill="#202020"/>
<path d="M481.26 70.804C481.216 70.4373 481.15 69.9827 481.062 69.44C480.989 68.8973 480.893 68.4647 480.776 68.142H482.866C483.174 68.142 483.394 68.0907 483.526 67.988C483.658 67.8853 483.724 67.6873 483.724 67.394V60.2H475.122V57.78H484.626C483.907 57.34 483.167 56.9147 482.404 56.504C481.641 56.0933 481.003 55.778 480.49 55.558L481.876 53.644C482.287 53.8053 482.778 54.0327 483.35 54.326C483.922 54.6193 484.501 54.9347 485.088 55.272C485.352 55.0813 485.645 54.8687 485.968 54.634C486.291 54.3993 486.599 54.172 486.892 53.952C487.2 53.7173 487.435 53.534 487.596 53.402H476.926V51.18H491.842L492.656 52.126C492.231 52.4927 491.681 52.94 491.006 53.468C490.346 53.9813 489.664 54.502 488.96 55.03C488.256 55.558 487.611 56.0347 487.024 56.46C487.42 56.6947 487.772 56.9367 488.08 57.186L487.596 57.78H493.998L494.9 58.594C494.621 59.0193 494.255 59.5253 493.8 60.112C493.36 60.684 492.876 61.278 492.348 61.894C491.835 62.51 491.321 63.0967 490.808 63.654C490.295 64.1967 489.825 64.6587 489.4 65.04C489.195 64.8053 488.901 64.534 488.52 64.226C488.139 63.9033 487.787 63.6467 487.464 63.456C487.772 63.1773 488.117 62.8473 488.498 62.466C488.879 62.07 489.253 61.674 489.62 61.278C490.001 60.8673 490.317 60.508 490.566 60.2H486.342V68.45C486.342 69.2713 486.107 69.8653 485.638 70.232C485.169 70.6133 484.457 70.804 483.504 70.804H481.26ZM501.28 70.606V61.762C500.649 61.8353 500.041 61.9087 499.454 61.982C498.867 62.0553 498.361 62.1067 497.936 62.136L497.518 59.76C497.753 59.76 498.017 59.7527 498.31 59.738C498.603 59.7233 498.911 59.7087 499.234 59.694C499.469 59.4447 499.725 59.1587 500.004 58.836C500.283 58.4987 500.561 58.1393 500.84 57.758C500.356 57.362 499.799 56.9293 499.168 56.46C498.552 55.9907 497.965 55.5873 497.408 55.25L498.728 53.38C498.86 53.468 498.999 53.5633 499.146 53.666C499.307 53.754 499.469 53.8493 499.63 53.952C499.85 53.6147 500.077 53.2333 500.312 52.808C500.561 52.3827 500.789 51.9647 500.994 51.554C501.214 51.1287 501.383 50.7767 501.5 50.498L503.568 51.4C503.216 52.016 502.835 52.6613 502.424 53.336C502.013 54.0107 501.625 54.6047 501.258 55.118C501.434 55.25 501.603 55.382 501.764 55.514C501.925 55.6313 502.072 55.7487 502.204 55.866C502.644 55.2207 503.047 54.6047 503.414 54.018C503.795 53.4313 504.081 52.9473 504.272 52.566L506.296 53.71C506.003 54.238 505.621 54.8393 505.152 55.514C504.697 56.174 504.213 56.8487 503.7 57.538C503.187 58.2273 502.688 58.88 502.204 59.496C502.585 59.4667 502.952 59.4373 503.304 59.408C503.656 59.364 503.979 59.3273 504.272 59.298C504.184 59.1073 504.089 58.9313 503.986 58.77C503.898 58.6087 503.81 58.4547 503.722 58.308L505.636 57.406C505.665 57.4647 505.695 57.516 505.724 57.56C505.768 57.604 505.805 57.6553 505.834 57.714C506.303 57.054 506.736 56.3133 507.132 55.492C507.528 54.656 507.865 53.8127 508.144 52.962C508.437 52.1113 508.643 51.3413 508.76 50.652L511.246 51.158C511.129 51.6567 510.989 52.1773 510.828 52.72C510.667 53.2627 510.483 53.8053 510.278 54.348H516.856V58.154C516.856 59.43 516.841 60.53 516.812 61.454C516.797 62.378 516.768 63.1847 516.724 63.874C516.68 64.5633 516.621 65.2013 516.548 65.788C516.431 66.932 516.181 67.834 515.8 68.494C515.433 69.1393 514.942 69.594 514.326 69.858C513.725 70.1367 512.999 70.276 512.148 70.276H510.388C510.359 69.9093 510.285 69.4767 510.168 68.978C510.051 68.4647 509.926 68.054 509.794 67.746H512.104C512.691 67.746 513.131 67.5993 513.424 67.306C513.717 67.0127 513.945 66.4113 514.106 65.502C514.209 64.9007 514.282 64.028 514.326 62.884C514.385 61.7253 514.414 60.1487 514.414 58.154V56.614H509.332C509.097 57.098 508.848 57.5673 508.584 58.022C508.32 58.4767 508.041 58.8947 507.748 59.276C507.557 59.1293 507.323 58.9753 507.044 58.814C506.765 58.6527 506.494 58.506 506.23 58.374C506.523 58.8727 506.802 59.3933 507.066 59.936C507.345 60.4787 507.557 60.9627 507.704 61.388C507.425 61.4907 507.073 61.6447 506.648 61.85C506.223 62.0407 505.878 62.2167 505.614 62.378C505.555 62.2167 505.489 62.0333 505.416 61.828C505.343 61.6227 505.262 61.4173 505.174 61.212C504.954 61.2413 504.719 61.278 504.47 61.322C504.221 61.3513 503.957 61.388 503.678 61.432V70.606H501.28ZM499.3 68.45C499.021 68.3327 498.662 68.208 498.222 68.076C497.782 67.944 497.415 67.8633 497.122 67.834C497.357 67.438 497.584 66.9393 497.804 66.338C498.024 65.7367 498.215 65.1133 498.376 64.468C498.552 63.8227 498.677 63.236 498.75 62.708L500.862 63.126C500.803 63.654 500.686 64.2553 500.51 64.93C500.349 65.6047 500.158 66.2573 499.938 66.888C499.733 67.504 499.52 68.0247 499.3 68.45ZM510.85 64.402C510.689 63.9473 510.469 63.4487 510.19 62.906C509.926 62.3487 509.633 61.8133 509.31 61.3C509.002 60.772 508.701 60.3247 508.408 59.958L510.388 58.902C510.872 59.4887 511.349 60.1853 511.818 60.992C512.287 61.7987 512.669 62.554 512.962 63.258C512.639 63.3753 512.265 63.544 511.84 63.764C511.429 63.984 511.099 64.1967 510.85 64.402ZM505.438 67.57C505.306 67.1887 505.152 66.712 504.976 66.14C504.8 65.5533 504.631 64.974 504.47 64.402C504.323 63.8153 504.206 63.3387 504.118 62.972L506.23 62.444C506.318 62.8107 506.443 63.2653 506.604 63.808C506.765 64.3507 506.941 64.8933 507.132 65.436C507.323 65.964 507.499 66.3967 507.66 66.734C507.469 66.7633 507.227 66.8293 506.934 66.932C506.655 67.0347 506.377 67.1447 506.098 67.262C505.834 67.3647 505.614 67.4673 505.438 67.57ZM521.058 70.782C520.955 70.474 520.787 70.0853 520.552 69.616C520.332 69.1467 520.105 68.7653 519.87 68.472C521.879 68.208 523.405 67.5773 524.446 66.58C525.502 65.568 526.081 64.3067 526.184 62.796H520.068V60.464H539.736V62.796H533.4V67.372C533.4 67.592 533.451 67.746 533.554 67.834C533.657 67.922 533.869 67.966 534.192 67.966H536.216C536.773 67.966 537.162 67.8047 537.382 67.482C537.602 67.1447 537.756 66.4847 537.844 65.502C538.123 65.6487 538.511 65.81 539.01 65.986C539.509 66.162 539.934 66.294 540.286 66.382C540.125 67.4967 539.912 68.3473 539.648 68.934C539.399 69.506 539.061 69.8873 538.636 70.078C538.211 70.2833 537.639 70.386 536.92 70.386H533.18C532.3 70.386 531.677 70.254 531.31 69.99C530.958 69.726 530.782 69.2787 530.782 68.648V62.796H528.758C528.655 64.9373 527.951 66.7047 526.646 68.098C525.341 69.4767 523.478 70.3713 521.058 70.782ZM520.266 58.11V52.698H528.34V50.52H531.31V52.698H539.472V58H536.854V55.03H522.884V58.11H520.266ZM523.896 58.902V56.57H535.93V58.902H523.896ZM548.294 70.518C548.279 70.2687 548.235 69.9607 548.162 69.594C548.103 69.242 548.03 68.8973 547.942 68.56C547.869 68.208 547.788 67.9293 547.7 67.724H550.208C550.531 67.724 550.758 67.68 550.89 67.592C551.037 67.4893 551.11 67.284 551.11 66.976V56.526H552.54C552.819 56.3207 553.149 56.0713 553.53 55.778C553.911 55.4847 554.293 55.1767 554.674 54.854C555.055 54.5313 555.371 54.2527 555.62 54.018H542.794V51.532H560.394L561.186 52.61C560.717 53.05 560.159 53.556 559.514 54.128C558.883 54.7 558.216 55.2793 557.512 55.866C556.823 56.4527 556.155 57.0027 555.51 57.516C554.865 58.0293 554.3 58.4547 553.816 58.792V68.12C553.816 68.956 553.574 69.5647 553.09 69.946C552.621 70.3273 551.895 70.518 550.912 70.518H548.294Z" fill="#9D9D9D"/>
<path d="M45 16L519 16" stroke="#2C799F" stroke-width="4" stroke-linecap="round"/>
<circle cx="45" cy="16" r="14.5" fill="#11999E" stroke="#40514E" stroke-width="3"/>
<circle cx="282" cy="16" r="14.5" fill="#11999E" stroke="#40514E" stroke-width="3"/>
<circle cx="519" cy="16" r="14.5" fill="white" stroke="#40514E" stroke-width="3"/>
</svg>
