<svg width="67" height="67" viewBox="0 0 67 67" fill="none" xmlns="http://www.w3.org/2000/svg">
<mask id="mask0_2224_6644" style="mask-type:alpha" maskUnits="userSpaceOnUse" x="0" y="0" width="67" height="67">
<rect width="67" height="67" fill="#D9D9D9"/>
</mask>
<g mask="url(#mask0_2224_6644)">
<path d="M2.7915 58.6252L33.4998 5.5835L64.2082 58.6252H2.7915ZM33.4998 50.2502C34.2908 50.2502 34.9538 49.9826 35.4889 49.4476C36.024 48.9125 36.2915 48.2495 36.2915 47.4585C36.2915 46.6675 36.024 46.0045 35.4889 45.4694C34.9538 44.9344 34.2908 44.6668 33.4998 44.6668C32.7089 44.6668 32.0458 44.9344 31.5108 45.4694C30.9757 46.0045 30.7082 46.6675 30.7082 47.4585C30.7082 48.2495 30.9757 48.9125 31.5108 49.4476C32.0458 49.9826 32.7089 50.2502 33.4998 50.2502ZM30.7082 41.8752H36.2915V27.9168H30.7082V41.8752Z" fill="#B78F00"/>
</g>
</svg>
